<svg xmlns="http://www.w3.org/2000/svg" width="30.678" height="24" viewBox="0 0 30.678 24">
  <path id="パス_293" data-name="パス 293" d="M195.267,24c-9.426-9.334-11.329-22.72-11.35-22.874l-.1-.772a.408.408,0,0,0-.4-.355h-6.963a.408.408,0,0,0-.4.354l-.1.77c-.021.155-1.924,13.541-11.35,22.875h3.582a42.115,42.115,0,0,0,6.718-10.579.2.2,0,0,1,.185-.119h9.709a.2.2,0,0,1,.185.119A42.085,42.085,0,0,0,191.68,24ZM175.9,11.006a48.756,48.756,0,0,0,2.4-8.248.2.2,0,0,1,.2-.165h2.869a.2.2,0,0,1,.2.165,48.751,48.751,0,0,0,2.4,8.248.2.2,0,0,1-.189.279h-7.683a.2.2,0,0,1-.189-.279" transform="translate(-164.589)" fill="#fff"/>
</svg>
