<svg xmlns="http://www.w3.org/2000/svg" width="27" height="27" viewBox="0 0 27 27">
  <g id="グループ_11001" data-name="グループ 11001" transform="translate(1279 1954) rotate(180)">
    <path id="パス_64020" data-name="パス 64020" d="M13.5,0A13.5,13.5,0,1,1,0,13.5,13.5,13.5,0,0,1,13.5,0Z" transform="translate(1252 1927)" fill="#dc001c"/>
    <path id="パス_267" data-name="パス 267" d="M.354,10.854A.5.5,0,0,1,0,10L4.647,5.354,0,.708A.5.5,0,1,1,.708,0l5,5a.5.5,0,0,1,0,.707l-5,5A.5.5,0,0,1,.354,10.854Z" transform="translate(1263.646 1935.646)" fill="#fff"/>
  </g>
</svg>
