<svg xmlns="http://www.w3.org/2000/svg" width="17.018" height="13" viewBox="0 0 17.018 13">
  <g id="グループ_2329" data-name="グループ 2329" transform="translate(-53.982 -338.679)">
    <path id="パス_2038" data-name="パス 2038" d="M15.625,19.336a1.207,1.207,0,0,1-.788-.291l-7.5-6.022a.5.5,0,0,1,.626-.78l7.519,6.041a.21.21,0,0,0,.276,0l.016-.014,7.5-6.027a.5.5,0,0,1,.626.78l-7.5,6.022A1.207,1.207,0,0,1,15.625,19.336Z" transform="translate(46.827 327.579)" fill="#fff"/>
    <path id="長方形_2791" data-name="長方形 2791" d="M1,1V12H16V1H1M1,0H16a1,1,0,0,1,1,1V12a1,1,0,0,1-1,1H1a1,1,0,0,1-1-1V1A1,1,0,0,1,1,0Z" transform="translate(54 338.679)" fill="#fff"/>
  </g>
</svg>
