<svg xmlns="http://www.w3.org/2000/svg" width="24.5" height="22.039" viewBox="0 0 24.5 22.039">
  <g id="グループ_2325" data-name="グループ 2325" transform="translate(-37.9 -360.549)">
    <path id="パス_18" data-name="パス 18" d="M8.9,42.8a.386.386,0,0,1-.33-.141c-.08-.107-.134-.178.15-3.689.137-1.69.29-3.382.292-3.4a.25.25,0,0,1,.146-.205l1.718-.777a.25.25,0,1,1,.206.456L9.5,35.766C9.291,38.026,9,41.473,9,42.29a1.841,1.841,0,0,0,1.14-.913c.239-.478,1.743-4.458,2.191-5.9.254-.814.307-.969.484-1.044a.332.332,0,0,1,.29.026c.034.018.043.022.1-.005.483-.21,2.932-1.457,3.376-1.7a2.139,2.139,0,0,1,.34-.143.482.482,0,0,0,.186-.087c.015-.025.046-.114,0-.413-.026-.175-.227-.369-.55-.533a2.764,2.764,0,0,0-2.032-.224c-.407.214-2.791,1.356-5.1,2.461C7.4,34.8,5.291,35.806,5.041,35.941a1.467,1.467,0,0,1-1.566.152,2.9,2.9,0,0,0-.6-.295c-.2-.081-.47-.193-.882-.382-.711-.326-.844-.222-1-.1-.033.026-.069.055-.111.082s-.059.038-.087.055c.027.032.067.075.125.133.1.1.263.282.473.516.336.374.8.887,1.215,1.3.643.642.843.716.882.725H4.881c.406,0,.45-.029.614-.139A3.53,3.53,0,0,1,6,37.7c.689-.324,1.67-.774,1.68-.778a.25.25,0,1,1,.208.455c-.01,0-.989.453-1.675.776a3.045,3.045,0,0,0-.442.251,1.261,1.261,0,0,1-.892.223H3.49c-.416,0-1.156-.739-2.464-2.2-.2-.219-.367-.409-.455-.5-.22-.22-.343-.383-.32-.57a.468.468,0,0,1,.276-.336c.025-.015.053-.032.082-.051s.051-.037.079-.059c.287-.226.6-.379,1.514.04.4.185.669.294.863.373a3.345,3.345,0,0,1,.685.341c.236.158.521.11,1.052-.176.261-.141,2.279-1.108,4.416-2.131,2.3-1.1,4.679-2.242,5.078-2.452a3.2,3.2,0,0,1,2.491.22,1.331,1.331,0,0,1,.819.9c.105.7-.083.9-.518,1.047a1.675,1.675,0,0,0-.265.11c-.479.261-2.918,1.5-3.416,1.719a.607.607,0,0,1-.383.048c-.063.168-.156.467-.218.665-.436,1.4-1.944,5.416-2.221,5.97a2.27,2.27,0,0,1-1.619,1.2Q8.932,42.8,8.9,42.8Z" transform="translate(37.651 339.784)" fill="#535453"/>
    <path id="パス_19" data-name="パス 19" d="M39.815,36.306a9.019,9.019,0,0,1-2.509-.354.25.25,0,1,1,.139-.48A8.52,8.52,0,0,0,48.055,25.152a.25.25,0,1,1,.484-.125,9.02,9.02,0,0,1-8.725,11.279Z" transform="translate(12.846 343.758)" fill="#535453"/>
    <path id="パス_20" data-name="パス 20" d="M18.393,12.675a.25.25,0,0,1-.247-.289A9.023,9.023,0,0,1,29.08,5.034a.25.25,0,0,1-.112.487A8.563,8.563,0,0,0,27.046,5.3a8.469,8.469,0,0,0-8.406,7.161A.25.25,0,0,1,18.393,12.675Z" transform="translate(25.614 357.236)" fill="#535453"/>
    <path id="パス_21" data-name="パス 21" d="M31.886,13.8h0a.25.25,0,0,1-.246-.254,15.321,15.321,0,0,1,.7-4.794,6.048,6.048,0,0,1,3.7-3.929.25.25,0,1,1,.169.47c-3.554,1.279-4.025,5.327-4.071,8.261A.25.25,0,0,1,31.886,13.8Z" transform="translate(16.538 357.236)" fill="#535453"/>
    <path id="線_13" data-name="線 13" d="M0,7.161a.25.25,0,0,1-.25-.25V0A.25.25,0,0,1,0-.25.25.25,0,0,1,.25,0V6.911A.25.25,0,0,1,0,7.161Z" transform="translate(52.843 362.292)" fill="#535453"/>
    <path id="線_14" data-name="線 14" d="M0,4.846A.25.25,0,0,1-.25,4.6V0A.25.25,0,0,1,0-.25.25.25,0,0,1,.25,0V4.6A.25.25,0,0,1,0,4.846Z" transform="translate(52.843 375.218)" fill="#535453"/>
    <path id="パス_22" data-name="パス 22" d="M45.386,36.306a.25.25,0,0,1-.133-.462c4.187-2.62,4.137-7.129,4.1-10.752a.25.25,0,1,1,.5-.006c.039,3.55.093,8.412-4.332,11.181A.249.249,0,0,1,45.386,36.306Z" transform="translate(7.457 343.758)" fill="#535453"/>
    <path id="パス_23" data-name="パス 23" d="M54.591,44.655a.249.249,0,0,1-.188-.085,6.192,6.192,0,0,0-4.765-2.479.25.25,0,1,1,0-.5,6.659,6.659,0,0,1,5.145,2.65.25.25,0,0,1-.188.415Z" transform="translate(4.598 332.49)" fill="#535453"/>
    <path id="パス_24" data-name="パス 24" d="M31.907,16.7a9.411,9.411,0,0,1-6.9-2.9.25.25,0,1,1,.368-.339,9.129,9.129,0,0,0,9.33,2.31.25.25,0,1,1,.15.477A9.81,9.81,0,0,1,31.907,16.7Z" transform="translate(21.041 351.466)" fill="#535453"/>
    <path id="パス_25" data-name="パス 25" d="M57.492.25A3.45,3.45,0,0,1,60.938,3.7c0,1.844-3.132,5.122-3.265,5.26a.25.25,0,0,1-.36,0c-.133-.139-3.265-3.416-3.265-5.26A3.449,3.449,0,0,1,57.492.25Zm0,8.168c.965-1.042,2.946-3.444,2.946-4.722a2.945,2.945,0,1,0-5.891,0C54.547,4.975,56.527,7.377,57.492,8.418Z" transform="translate(1.462 360.299)" fill="#535453"/>
    <path id="楕円形_2" data-name="楕円形 2" d="M1.57-.25A1.82,1.82,0,1,1-.25,1.57,1.822,1.822,0,0,1,1.57-.25Zm0,3.14A1.32,1.32,0,1,0,.25,1.57,1.322,1.322,0,0,0,1.57,2.89Z" transform="translate(57.385 362.289)" fill="#535453"/>
    <path id="線_15" data-name="線 15" d="M5.143.25H0A.25.25,0,0,1-.25,0,.25.25,0,0,1,0-.25H5.143a.25.25,0,0,1,.25.25A.25.25,0,0,1,5.143.25Z" transform="translate(56.28 371.175)" fill="#535453"/>
    <path id="パス_26" data-name="パス 26" d="M13.388,34.7a.249.249,0,0,1-.138-.042c-.087-.058-1.315-.812-2.119-1.3a.25.25,0,0,1-.012-.419l.824-.572a1.5,1.5,0,0,1,1.524-.155c.734.245,4.019,1.533,4.158,1.588a.25.25,0,1,1-.183.465c-.034-.013-3.412-1.338-4.134-1.579a1.007,1.007,0,0,0-1.081.092l-.51.354c.584.358,1.712,1.05,1.809,1.114a.25.25,0,0,1-.139.458Z" transform="translate(30.412 338.89)" fill="#535453"/>
  </g>
</svg>
