<svg xmlns="http://www.w3.org/2000/svg" width="24.5" height="17.185" viewBox="0 0 24.5 17.185">
  <g id="グループ_2326" data-name="グループ 2326" transform="translate(-39.96 -318.948)">
    <path id="パス_1" data-name="パス 1" d="M26,46.4H8.478a1.118,1.118,0,1,1,0-2.235H26A1.118,1.118,0,1,1,26,46.4ZM8.478,44.667a.618.618,0,1,0,0,1.235H26a.618.618,0,1,0,0-1.235Z" transform="translate(35.02 289.731)" fill="#535453"/>
    <path id="線_9" data-name="線 9" d="M16.737.25H0A.25.25,0,0,1-.25,0,.25.25,0,0,1,0-.25H16.737a.25.25,0,0,1,.25.25A.25.25,0,0,1,16.737.25Z" transform="translate(43.841 332.304)" fill="#535453"/>
    <path id="パス_2" data-name="パス 2" d="M27.821,20.355a.25.25,0,0,1-.248-.222,8.259,8.259,0,0,0-16.415,0,.25.25,0,1,1-.5-.055,8.759,8.759,0,0,1,17.409,0,.25.25,0,0,1-.221.276Z" transform="translate(32.844 310.752)" fill="#535453"/>
    <path id="パス_3" data-name="パス 3" d="M18.25,21.857a.25.25,0,0,1-.218-.372,7.942,7.942,0,0,1,3.365-3.3,5.814,5.814,0,0,1,1.879-.6.25.25,0,0,1,.046.5,5.455,5.455,0,0,0-1.723.563,7.452,7.452,0,0,0-3.131,3.083A.25.25,0,0,1,18.25,21.857Z" transform="translate(28.002 307.264)" fill="#535453"/>
    <path id="パス_4" data-name="パス 4" d="M34.243,6.5H30.583a.25.25,0,1,1,0-.5h3.659a.25.25,0,0,1,0,.5Z" transform="translate(19.867 314.905)" fill="#535453"/>
    <path id="線_10" data-name="線 10" d="M0,2.394a.25.25,0,0,1-.25-.25V0A.25.25,0,0,1,0-.25.25.25,0,0,1,.25,0V2.144A.25.25,0,0,1,0,2.394Z" transform="translate(52.209 321.155)" fill="#535453"/>
    <path id="パス_5" data-name="パス 5" d="M.5,4.466A.25.25,0,0,1,.279,4.1,7.322,7.322,0,0,1,3.615.856a6.391,6.391,0,0,1,1.967-.6.25.25,0,0,1,.047.5,6.03,6.03,0,0,0-1.817.567A6.744,6.744,0,0,0,.721,4.332.25.25,0,0,1,.5,4.466Z" transform="translate(39.71 318.698)" fill="#535453"/>
    <path id="パス_6" data-name="パス 6" d="M7.25,10.186A.25.25,0,0,1,7.042,9.8,5.664,5.664,0,0,1,10.26,7.422a.25.25,0,1,1,.107.488,5.259,5.259,0,0,0-2.909,2.164A.25.25,0,0,1,7.25,10.186Z" transform="translate(35.258 313.971)" fill="#535453"/>
    <path id="パス_7" data-name="パス 7" d="M61.577,4.778a.25.25,0,0,1-.235-.166,6.03,6.03,0,0,0-1-1.62A6.744,6.744,0,0,0,56.655.744a.25.25,0,0,1,.116-.486,7.322,7.322,0,0,1,3.969,2.43,6.39,6.39,0,0,1,1.073,1.756.25.25,0,0,1-.235.334Z" transform="translate(2.632 318.697)" fill="#535453"/>
    <path id="パス_8" data-name="パス 8" d="M58.515,10.419a.25.25,0,0,1-.224-.138A5.258,5.258,0,0,0,55.475,8a.25.25,0,1,1,.165-.472,5.663,5.663,0,0,1,3.1,2.53.25.25,0,0,1-.223.362Z" transform="translate(3.394 313.907)" fill="#535453"/>
  </g>
</svg>
