<svg xmlns="http://www.w3.org/2000/svg" xmlns:xlink="http://www.w3.org/1999/xlink" width="38" height="38" viewBox="0 0 38 38">
  <defs>
    <clipPath id="clip-path">
      <rect id="長方形_2879" data-name="長方形 2879" width="38" height="37.396" fill="none" stroke="#333" stroke-width="1.5"/>
    </clipPath>
  </defs>
  <g id="グループ_2557" data-name="グループ 2557" transform="translate(-390 -1308)">
    <g id="グループ_2556" data-name="グループ 2556" transform="translate(390 1308)">
      <g id="グループ_2519" data-name="グループ 2519" clip-path="url(#clip-path)">
        <path id="パス_35488" data-name="パス 35488" d="M221.861,7.589a3.362,3.362,0,1,0-6.7,0c0,2.023,1.5,4.722,3.349,4.722S221.861,9.612,221.861,7.589Z" transform="translate(-188.497 -3.44)" fill="none" stroke="#333" stroke-linecap="round" stroke-linejoin="round" stroke-width="1.5"/>
        <path id="パス_35489" data-name="パス 35489" d="M273.215,81.4l.329.091a4.647,4.647,0,0,1,3.308,4.987l-.4,4.983a2.962,2.962,0,0,1-2.933,2.911" transform="translate(-239.354 -71.315)" fill="none" stroke="#333" stroke-linecap="round" stroke-linejoin="round" stroke-width="1.5"/>
        <path id="パス_35490" data-name="パス 35490" d="M185.339,81.4l-.329.091a4.647,4.647,0,0,0-3.308,4.987l.4,4.983a2.963,2.963,0,0,0,2.933,2.911" transform="translate(-159.169 -71.315)" fill="none" stroke="#333" stroke-linecap="round" stroke-linejoin="round" stroke-width="1.5"/>
        <path id="パス_35491" data-name="パス 35491" d="M208.136,120.613l.653,20.249a1.784,1.784,0,0,0,3.566-.072V130.648" transform="translate(-182.34 -105.665)" fill="none" stroke="#333" stroke-linecap="round" stroke-linejoin="round" stroke-width="1.5"/>
        <path id="パス_35492" data-name="パス 35492" d="M246.4,120.613l-.653,20.249a1.784,1.784,0,0,1-3.566-.072" transform="translate(-212.169 -105.665)" fill="none" stroke="#333" stroke-linecap="round" stroke-linejoin="round" stroke-width="1.5"/>
        <path id="パス_35493" data-name="パス 35493" d="M43.114,96.806l-3.088.982c-.774.356-.947,3.919-.947,3.919" transform="translate(-34.236 -84.808)" fill="none" stroke="#333" stroke-linecap="round" stroke-linejoin="round" stroke-width="1.5"/>
        <path id="パス_35494" data-name="パス 35494" d="M111.724,96.806l3.088.982c.774.356.947,3.919.947,3.919" transform="translate(-97.877 -84.808)" fill="none" stroke="#333" stroke-linecap="round" stroke-linejoin="round" stroke-width="1.5"/>
        <path id="パス_35495" data-name="パス 35495" d="M69.792,29.136a.206.206,0,0,1,.171-.2,3.5,3.5,0,0,0,2.5-1.488,3.394,3.394,0,0,0,2.444,1.489.206.206,0,0,1,.171.2l.012.873a4.277,4.277,0,0,1-.278,2.01c-.437,1.174-1.307,2.162-2.349,2.162s-1.912-.989-2.349-2.162a5.2,5.2,0,0,1-.326-2.126Z" transform="translate(-61.142 -24.044)" fill="none" stroke="#333" stroke-linecap="round" stroke-linejoin="round" stroke-width="1.5"/>
        <path id="パス_35496" data-name="パス 35496" d="M62.34,18.178a27.326,27.326,0,0,0-.154-5.531,4.763,4.763,0,0,0-9.308,0c-.4,1.415-.067,5.519-.067,5.519" transform="translate(-46.151 -7.794)" fill="none" stroke="#333" stroke-linecap="round" stroke-linejoin="round" stroke-width="1.5"/>
        <line id="線_481" data-name="線 481" x2="1.799" transform="translate(13.509 16.063)" fill="none" stroke="#333" stroke-linecap="round" stroke-linejoin="round" stroke-width="1.5"/>
        <line id="線_482" data-name="線 482" x2="19.879" transform="translate(0.487 19.481)" fill="none" stroke="#333" stroke-linecap="round" stroke-linejoin="round" stroke-width="1.5"/>
        <path id="パス_35497" data-name="パス 35497" d="M64.839,205.521a4.468,4.468,0,1,0-8.936,0" transform="translate(-48.975 -176.135)" fill="none" stroke="#333" stroke-linecap="round" stroke-linejoin="round" stroke-width="1.5"/>
        <line id="線_483" data-name="線 483" x2="11.144" transform="translate(5.824 31.797)" fill="none" stroke="#333" stroke-linecap="round" stroke-linejoin="round" stroke-width="1.5"/>
        <line id="線_484" data-name="線 484" x2="1.299" transform="translate(10.747 22.722)" fill="none" stroke="#333" stroke-linecap="round" stroke-linejoin="round" stroke-width="1.5"/>
        <line id="線_485" data-name="線 485" y1="9.726" transform="translate(2.554 22.363)" fill="none" stroke="#333" stroke-linecap="round" stroke-linejoin="round" stroke-width="1.5"/>
        <line id="線_486" data-name="線 486" x1="23.096" transform="translate(0.487 35.109)" fill="none" stroke="#333" stroke-linecap="round" stroke-linejoin="round" stroke-width="1.5"/>
      </g>
    </g>
    <rect id="長方形_2922" data-name="長方形 2922" width="38" height="38" transform="translate(390 1308)" fill="none"/>
  </g>
</svg>
