<svg xmlns="http://www.w3.org/2000/svg" width="22" height="21.523" viewBox="0 0 22 21.523">
  <g id="タグアイコン4" transform="translate(0 -5.544)">
    <path id="パス_35502" data-name="パス 35502" d="M21.065,251.847h0l-6.074,6.319a3.754,3.754,0,0,1-5.453,0l-8.6-8.95L0,250.188l8.6,8.95a5.041,5.041,0,0,0,7.323,0L22,252.819Z" transform="translate(0 -233.646)" fill="#c89946"/>
    <path id="パス_35503" data-name="パス 35503" d="M34.916,15.085l8.543,8.552a1.86,1.86,0,0,0,2.631,0L52.121,17.6a1.863,1.863,0,0,0,0-2.633L43.579,6.413a1.861,1.861,0,0,0-1.221-.543L36,5.547A1.861,1.861,0,0,0,34.051,7.5l.323,6.362A1.861,1.861,0,0,0,34.916,15.085ZM37.5,9a1.532,1.532,0,1,1,0,2.168A1.53,1.53,0,0,1,37.5,9Z" transform="translate(-32.526 0)" fill="#c89946"/>
  </g>
</svg>
