<svg xmlns="http://www.w3.org/2000/svg" width="36" height="27.495" viewBox="0 0 36 27.495">
  <g id="旅行用スーツケースのフリーアイコン6" transform="translate(0 -60.48)">
    <path id="パス_36105" data-name="パス 36105" d="M185.38,63.669c0-.33.456-.543.727-.616a17.536,17.536,0,0,1,4.419,0c.272.073.727.286.727.616v1.343h2.182V63.333c0-1.427-.252-2.853-5.119-2.853s-5.119,1.427-5.119,2.853v1.678h2.181S185.38,64.48,185.38,63.669Z" transform="translate(-170.318)" fill="#fff"/>
    <path id="パス_36106" data-name="パス 36106" d="M30.835,143.607H0v21.65H36v-21.65ZM1.511,145.118H4.94c-.053.17-.113.337-.181.5a5.2,5.2,0,0,1-1.872,2.272,5.122,5.122,0,0,1-1.377.657v-3.43Zm0,18.629v-3.43c.171.053.337.112.5.181a5.188,5.188,0,0,1,2.272,1.872,5.12,5.12,0,0,1,.657,1.377Zm6.755,0H6.158a6.226,6.226,0,0,0-.316-.957A6.364,6.364,0,0,0,3.545,160a6.291,6.291,0,0,0-2.034-.9v-9.334a6.22,6.22,0,0,0,.957-.317,6.358,6.358,0,0,0,2.789-2.3,6.292,6.292,0,0,0,.9-2.034H8.266v18.629Zm15.86,0H11.874V145.118H24.126v18.629Zm10.364,0H31.06a5.254,5.254,0,0,1,.181-.5,5.183,5.183,0,0,1,1.872-2.272,5.11,5.11,0,0,1,1.377-.657Zm0-4.647a6.342,6.342,0,0,0-4.647,4.647H27.734V145.118h2.108a6.077,6.077,0,0,0,.316.957,6.351,6.351,0,0,0,2.3,2.788,6.271,6.271,0,0,0,2.034.9Zm0-10.552a5.034,5.034,0,0,1-.5-.182,5.189,5.189,0,0,1-2.273-1.871,5.1,5.1,0,0,1-.657-1.377h3.43v3.43Z" transform="translate(0 -77.282)" fill="#fff"/>
  </g>
</svg>
