<svg xmlns="http://www.w3.org/2000/svg" width="30" height="26.316" viewBox="0 0 30 26.316">
  <g id="注意マークのアイコン素材" transform="translate(0 -31.436)">
    <path id="パス_1633" data-name="パス 1633" d="M29.829,55.857,16.095,32.068a1.264,1.264,0,0,0-2.189,0L.171,55.857a1.264,1.264,0,0,0,1.094,1.9H28.735A1.264,1.264,0,0,0,29.829,55.857Zm-13.6-1.44c0,.157-.552.284-1.232.284s-1.233-.127-1.233-.284V52.444c0-.157.552-.284,1.233-.284s1.232.127,1.232.284Zm-.205-4.6c0,.006,0,.011,0,.018,0,.255-.462.461-1.031.461s-1.031-.206-1.031-.461c0-.006,0-.012,0-.018l-.641-8.232c0-.255.747-.461,1.668-.461s1.668.206,1.668.461Z" transform="translate(0)" fill="#cb0011"/>
  </g>
</svg>
